# xmcd CD database file
#
# Track frame offsets:
#	150
#	17767
#	33032
#
# Disc length: 813 seconds
#
# Revision: 2
# Processed by: cddbd v1.4b41PL1 Copyright (c) Steve Scherf et al.
# Submitted via: Feurio! 1.50.2ß - http://www.feurio.com
#
DISCID=15032b03
DTITLE=Jacqueline - Drei Worte für Sarah
DYEAR=1900
DGENRE=
TTITLE0=drei worte für sarah
TTITLE1=in meinen träumen
TTITLE2=drei worte für sarah maxi version
EXTD=
EXTT0=
EXTT1=
EXTT2=
PLAYORDER=
